<svg width="272" height="161" viewBox="0 0 272 161" fill="none" xmlns="http://www.w3.org/2000/svg">
<g opacity="0.7">
<path fill-rule="evenodd" clip-rule="evenodd" d="M10.6134 122.03C10.8179 122.058 10.9061 122.372 11.1106 122.399C11.2633 122.42 13.6672 115.116 14.4595 112.974C32.2084 65.0123 55.7707 10.8095 58.9174 9.17022C60.5084 8.3411 61.9645 9.47639 61.7173 11.6247C60.1279 25.4393 39.1895 94.9333 40.4379 96.2268C41.5942 97.4242 55.4633 73.8201 55.9451 73.0301C58.9878 68.0436 97.3282 1.79439 99.7729 0.26353C101.101 -0.568357 102.647 0.672156 102.153 2.54321C99.4149 12.8941 72.9582 86.8364 58.9356 133.058C57.9123 136.432 55.2347 134.759 55.5756 133.091C57.6567 122.908 76.2098 68.6136 83.6264 46.0877C91.1953 23.0995 92.6126 19.8269 93.5715 17.6125C93.636 17.4634 94.4821 15.5097 93.7776 15.5896C93.7092 15.5975 88.2004 25.575 84.4484 31.5093C77.5987 42.3437 46.9791 98.175 41.0843 100.863C35.858 103.246 36.8615 95.6719 36.9359 95.1094C38.3683 84.298 48.576 51.7729 54.0998 28.6066C54.6029 26.4959 56.5677 20.7079 55.1334 22.4381C54.9665 22.6394 53.6227 26.5054 49.091 35.7633C48.0657 37.8583 35.8239 66.1258 27.8255 86.8316C27.7855 86.9361 20.3033 105.107 13.1245 124.777C12.7194 125.887 9.80403 133.875 7.94761 138.61C5.16002 145.718 3.80796 152.722 1.61016 152.892C-0.607415 153.063 0.0899783 150.351 0.152874 150.108C1.68136 144.168 1.76641 144.236 20.2396 76.1164C26.1858 54.1887 26.2658 54.2531 31.7958 32.2253C33.2927 26.2617 36.0787 28.66 36.1827 30.2047C36.2437 31.1086 36.2935 31.1561 15.6514 105.325C13.6292 112.59 11.6917 117.672 10.6134 122.03Z" fill="#ECFFFA"/>
<path fill-rule="evenodd" clip-rule="evenodd" d="M159.724 96.2798C160.277 88.4712 164.858 82.7216 163.395 82.9372C161.248 83.2536 159.609 86.4835 146.791 87.3039C145.175 87.4075 145.374 89.2038 141.597 93.0721C129.982 104.967 120.079 99.6884 125.55 88.4328C126.599 86.2762 129.243 83.2623 127.433 84.1441C117.958 88.7592 112.377 86.7679 111.254 88.4154C100.877 103.633 90.9679 101.127 89.7697 96.2929C87.3393 86.4862 107.835 69.9284 110.059 76.0795C110.718 77.9 111.9 76.6452 112.996 78.2073C114.646 80.5594 113.322 83.7157 113.254 84.0305C112.744 86.3814 128.991 81.8513 133.471 78.25C138.749 74.0075 143.543 73.2741 144.368 75.3355C145.128 77.2354 146.308 76.0934 147.388 77.8106C148.861 80.1543 147.518 83.2279 147.459 83.61C147.154 85.5594 157.401 82.8877 163.697 79.485C166.954 77.7247 165.854 76.0491 168.148 75.7449C171.174 75.3434 169.252 79.4486 169.113 79.7473C161.704 95.5757 162.482 97.2517 163.805 96.7256C168.316 94.9313 179.459 83.6033 180.704 82.3379C183.076 79.9273 181.671 77.5851 185.185 75.784C185.422 75.6622 190.679 74.786 186.146 81.5103C184.123 84.5115 190.007 85.5772 193.855 85.1987C199.717 84.6223 199.444 83.7271 199.968 82.9486C205.314 75.006 212.039 73.4272 214.412 73.839C220.375 74.8734 222.002 83.1587 204.101 87.0076C202.083 87.4415 200.588 86.7271 200.666 90.7371C200.691 92.0013 200.786 96.8783 216.424 91.9954C231.516 87.2825 239.096 82.7402 244.169 80.2224C245.996 79.3149 247.06 80.7584 246.591 82.0883C245.847 84.2014 211.506 100.685 201.803 96.9728C196.023 94.762 197.574 88.8897 197.58 88.3478C197.593 87.2335 194.49 88.3656 191.486 88.2568C185.716 88.048 183.561 84.9581 183.515 84.9352C182.173 84.2615 160.599 110.446 159.724 96.2798ZM129.782 96.3759C121.567 96.33 136.259 77.9498 136.088 81.2493C136.067 81.6504 134.817 85.0998 140.48 86.6919C141.541 86.9898 142.203 87.0096 141.525 87.8953C135.8 95.3791 131.245 96.0923 129.782 96.3759ZM97.3453 85.6065C97.9529 84.9202 98.1253 84.5669 100.261 82.6172C100.354 82.5329 101.769 81.2406 101.812 82.4075C101.947 86.101 105.453 86.7026 106.854 87.1199C109.215 87.8233 99.8611 96.7592 95.3544 96.5073C89.5679 96.1837 96.82 86.3209 97.3453 85.6065ZM214.45 79.2936C211.069 82.0013 210.473 81.737 204.112 83.8486C201.738 84.6366 206.205 80.1017 208.957 78.5997C213.033 76.3746 216.326 76.6116 214.45 79.2936ZM144.471 82.059C143.415 84.6868 142.606 84.5139 140.132 83.0994C138.44 82.1326 139.333 80.182 141.982 79.1298C145.346 77.7932 144.532 81.758 144.471 82.059ZM110.216 82.775C109.799 83.7216 109.957 85.0127 106.885 83.866C101.427 81.8284 110.506 76.6223 110.508 81.2477C110.508 81.3719 110.486 81.3608 110.216 82.775Z" fill="#ECFFFA"/>
<path fill-rule="evenodd" clip-rule="evenodd" d="M235.378 111.167C252.149 109.69 259.988 109.63 261.879 109.815C262.989 109.924 262.952 110.995 261.475 111.138C247.416 112.502 247.422 112.288 233.393 113.909C218.712 115.605 138.977 124.816 52.2042 149.951C18.8856 159.602 16.9845 161.905 17.492 159.592C17.6613 158.821 28.8097 154.79 30.9094 154.124C105.299 130.529 165.589 118.689 235.378 111.167Z" fill="#ECFFFA"/>
<path fill-rule="evenodd" clip-rule="evenodd" d="M265.694 95.503C265.829 91.6291 269.493 90.1885 270.843 92.4072C273.054 96.0417 266.874 100.581 265.694 95.503Z" fill="#ECFFFA"/>
<path fill-rule="evenodd" clip-rule="evenodd" d="M10.4579 123.085C10.5532 123.741 10.5948 123.748 10.5607 123.794C8.71659 126.287 10.4302 123.136 10.4579 123.085Z" fill="#ECFFFA"/>
</g>
</svg>
