<svg width="2584" height="2278" viewBox="0 0 2584 2278" fill="none" xmlns="http://www.w3.org/2000/svg">
<g opacity="0.08">
<path d="M154.204 2108.67C105.405 2162.25 81.0055 2189.05 79.9595 2211.85C79.051 2231.66 87.4854 2250.75 102.743 2263.42C120.31 2278 156.549 2278 229.027 2278H575.935C592.114 2278 600.203 2278 607.775 2276.1C614.486 2274.42 620.876 2271.65 626.69 2267.9C633.249 2263.66 638.776 2257.76 649.83 2245.94L2591.93 170.339C2642.24 116.57 2667.39 89.6847 2668.66 66.7436C2669.77 46.8239 2661.41 27.5518 2646.11 14.747C2628.49 0 2591.67 0 2518.03 0H1080.19C1063.24 0 1054.76 0 1046.87 2.06697C1039.89 3.89867 1033.26 6.91394 1027.29 10.982C1020.56 15.5725 1014.99 21.9663 1003.86 34.7538L747.845 328.859C701.474 382.129 678.288 408.765 677.607 431.346C677.015 450.967 685.568 469.751 700.757 482.188C718.236 496.501 753.549 496.501 824.174 496.501H1393.3C1465.78 496.501 1502.01 496.501 1519.58 511.084C1534.84 523.749 1543.27 542.838 1542.36 562.647C1541.32 585.454 1516.92 612.248 1468.12 665.835L154.204 2108.67Z" stroke="#ECFFFA" stroke-width="23.4864"/>
<path d="M1193.64 1927.17C1142.98 1980.98 1117.65 2007.89 1116.33 2030.86C1115.18 2050.81 1123.53 2070.12 1138.84 2082.96C1156.47 2097.74 1193.42 2097.74 1267.33 2097.74H1663.56C1679.45 2097.74 1687.4 2097.74 1694.85 2095.91C1701.46 2094.28 1707.76 2091.59 1713.51 2087.96C1720 2083.86 1725.51 2078.13 1736.52 2066.67L2719.44 1044.16C2771.29 990.213 2797.22 963.241 2798.72 940.168C2800.01 920.14 2791.73 900.684 2776.39 887.74C2758.72 872.829 2721.31 872.829 2646.48 872.829H2230.01C2213.89 872.829 2205.84 872.829 2198.29 874.712C2191.6 876.382 2185.23 879.133 2179.43 882.858C2172.89 887.06 2167.37 892.926 2156.32 904.657L1193.64 1927.17Z" stroke="#ECFFFA" stroke-width="23.4864"/>
</g>
</svg>
